<svg xmlns="http://www.w3.org/2000/svg" viewBox="0 0 490 339.2"><defs><style>.cls-1{fill:#231f20;}.cls-2{opacity:0.7;}.cls-3{fill:#c9c9c9;}.cls-4{opacity:0.3;}</style></defs><title>framelines.photo</title><g id="Layer_4" data-name="Layer 4"><path class="cls-1" d="M14,153a3,3,0,0,1,3.13-2.73H41c1.33,0,2.07.33,2.07,1.13a4.82,4.82,0,0,1-.87,2.53c-.33.4-.87.47-1.73.47H18.28L14.81,170.7H31.35c1.33,0,2,.33,2,1.07a4.36,4.36,0,0,1-.8,2.47,2.27,2.27,0,0,1-1.67.47H13.94l-3.6,16.94c-.33,1.47-.93,2.07-2.27,2.07h-.6c-1.33,0-1.93-.87-1.6-2.33Z" transform="translate(-5.78 -5.44)"/><path class="cls-1" d="M44.42,161.63a1.49,1.49,0,0,1,.93-.2c1.67,0,3.13.8,2.4,4.6l-.27,1.27c2.2-4.2,5-6.4,8.94-6.4,2.47,0,4.6,1.13,4.6,3,0,2.13-1.6,3-1.73,2.87A5.34,5.34,0,0,0,55.16,165c-5.14,0-8.6,6.54-10.47,15.47l-2.33,11.14c-.33,1.53-.93,2.07-2,2.07h-.53c-1.13,0-2.13-.47-1.8-2.07Z" transform="translate(-5.78 -5.44)"/><path class="cls-1" d="M79.23,160.9c5.27,0,9.47,2.8,11.2,6.74l.4-1.73c.67-3.27,1.67-4.47,3.47-4.47A2.82,2.82,0,0,1,96,162L90.7,186.71c-.67,3.13-.07,4.2,2.87,4.27.07,0,.33,3-3,3-3.6,0-5.07-2.4-4.33-6.54A14.46,14.46,0,0,1,74,194.24c-6.87,0-12.74-4.67-12.74-13.47C61.23,171,68.76,160.9,79.23,160.9ZM74.5,190.44c6.67,0,12.4-5.67,13.74-12.2L89.37,173c-1.47-5.07-4.94-8.27-10.4-8.27-8.34,0-13.34,8.4-13.34,16C65.63,186.91,69.7,190.44,74.5,190.44Z" transform="translate(-5.78 -5.44)"/><path class="cls-1" d="M104.91,161.63a1.49,1.49,0,0,1,.93-.2c1.67,0,3.13.8,2.4,4.6l-.07.2a12.42,12.42,0,0,1,10.07-5.33c5,0,8.6,2.73,9.87,7,2.53-4,6.47-7,12.14-7a10.31,10.31,0,0,1,10.67,10.74c0,2.33-.93,6.07-1.93,9.74a36.29,36.29,0,0,0-1.6,7.2c0,1.8.93,2.33,2.8,2.47a2.61,2.61,0,0,1-2.87,2.93c-2.67,0-4.27-1.8-4.27-4.73a40.29,40.29,0,0,1,1.73-8.47,38.45,38.45,0,0,0,1.67-8.34c0-4.6-2.8-7.47-6.8-7.47-4.67,0-7.54,2.13-10.67,7l-4.14,19.67a2.24,2.24,0,0,1-2.4,2.07H122c-1.13,0-1.8-.4-1.47-2.07L124,175.17c1.27-6-1.47-10.2-6.34-10.2-4.6,0-7.54,2.07-10.67,7l-4.13,19.67a2.19,2.19,0,0,1-2.4,2.07H100c-1.13,0-1.8-.47-1.47-2.07Z" transform="translate(-5.78 -5.44)"/><path class="cls-1" d="M175.94,160.9c7.14,0,11.34,3.4,11.34,8.4,0,6.34-4.2,10.14-18.47,10.14-2.47,0-5.14-.13-8.4-.4-.07.67-.07,1.33-.07,2,0,5.6,3.27,9.47,9.54,9.47a12.28,12.28,0,0,0,10.74-5.27,2.35,2.35,0,0,1,2.27,2.07c0,1-.33,1.67-1.47,2.8-2.8,2.8-6.47,4.14-11.67,4.14-9,0-13.81-5.47-13.81-12.94C155.93,169.84,164.6,160.9,175.94,160.9Zm-7.54,14.87c11.47,0,14.47-3.07,14.47-6.4,0-2.33-2.33-4.67-7.14-4.67-6.67,0-12.2,4.6-14.41,10.67A55.81,55.81,0,0,0,168.4,175.77Z" transform="translate(-5.78 -5.44)"/><path class="cls-1" d="M198.41,150.09c.33-1.53.93-2.07,2-2.07h.53c1.13,0,2.13.47,1.8,2.07l-7.8,36.61c-.67,3.13-.07,4.27,3.2,4.27.07,0,.27,3-3.13,3-3.93,0-5.4-2.53-4.4-7.2Z" transform="translate(-5.78 -5.44)"/><path class="cls-1" d="M209.48,163.5c.33-1.53.93-2.07,2-2.07H212c1.13,0,2.13.47,1.8,2.07l-4.93,23.21c-.67,3.13-.07,4.27,3.2,4.27.07,0,.27,3-3.13,3-3.93,0-5.4-2.53-4.4-7.2Zm1.93-12a3.1,3.1,0,0,1,3.07-3.4c1.93,0,2.93.8,2.93,2.2a3.1,3.1,0,0,1-3.07,3.4C212.42,153.7,211.42,152.9,211.42,151.5Z" transform="translate(-5.78 -5.44)"/><path class="cls-1" d="M223.49,161.63a1.49,1.49,0,0,1,.93-.2c1.67,0,3.13.8,2.4,4.6l-.2.93a12.45,12.45,0,0,1,10.54-6.07c7,0,11.14,4.6,11.14,10.74,0,2.33-.93,6.07-1.93,9.74a36.29,36.29,0,0,0-1.6,7.2c0,1.8.93,2.33,2.8,2.47a2.61,2.61,0,0,1-2.87,2.93c-2.67,0-4.27-1.8-4.27-4.73a40.29,40.29,0,0,1,1.73-8.47,38.45,38.45,0,0,0,1.67-8.34c0-4.6-2.6-7.47-7.27-7.47-4.87,0-8.14,2.53-11.14,7.67l-4,19c-.33,1.53-.93,2.07-2,2.07h-.53c-1.13,0-2.13-.47-1.8-2.07Z" transform="translate(-5.78 -5.44)"/><path class="cls-1" d="M273.31,160.9c7.14,0,11.34,3.4,11.34,8.4,0,6.34-4.2,10.14-18.47,10.14-2.47,0-5.14-.13-8.4-.4-.07.67-.07,1.33-.07,2,0,5.6,3.27,9.47,9.54,9.47A12.28,12.28,0,0,0,278,185.24a2.35,2.35,0,0,1,2.27,2.07c0,1-.33,1.67-1.47,2.8-2.8,2.8-6.47,4.14-11.67,4.14-9,0-13.81-5.47-13.81-12.94C253.3,169.84,262,160.9,273.31,160.9Zm-7.54,14.87c11.47,0,14.47-3.07,14.47-6.4,0-2.33-2.33-4.67-7.14-4.67-6.67,0-12.2,4.6-14.41,10.67A55.81,55.81,0,0,0,265.77,175.77Z" transform="translate(-5.78 -5.44)"/><path class="cls-1" d="M285.38,187.11a2.69,2.69,0,0,1,2.4-2.53,12.66,12.66,0,0,0,11.27,6c4.93,0,7.74-2.2,7.74-5.4,0-2.93-2.93-4.07-7.6-5.67s-9.6-3.47-9.6-9.2c0-5.47,4.94-9.4,11.87-9.4,4.73,0,8.47,1.67,10.54,3.73a4.58,4.58,0,0,1,1.6,3.2c0,1.93-2.33,2.6-2.53,2.27-1.67-3.27-5.54-5.54-9.94-5.54-4.87,0-7.34,2.53-7.34,5.2,0,3.13,3.2,4.4,7.87,6.07s9.34,3.47,9.34,8.8c0,5.8-4.6,9.6-12.2,9.6-5.2,0-9.47-1.8-11.8-4.14A4.64,4.64,0,0,1,285.38,187.11Z" transform="translate(-5.78 -5.44)"/><path class="cls-1" d="M316.86,188.11a3.28,3.28,0,0,1,2.47-.87c2,0,3.2.87,3.2,2.27a4.7,4.7,0,0,1-1.07,3.47,3.28,3.28,0,0,1-2.47.87c-2,0-3.2-.87-3.2-2.27A4.7,4.7,0,0,1,316.86,188.11Z" transform="translate(-5.78 -5.44)"/><path class="cls-1" d="M330.59,204.51c-.33,1.53-.93,2.07-2,2.07h-.53c-1.13,0-2.13-.47-1.8-2.07l9.14-42.88a1.49,1.49,0,0,1,.93-.2c1.67,0,3.13.8,2.4,4.6l-.2,1.07c3-4,6.6-6.2,11.6-6.2,6.74,0,13.07,4.8,13.07,14.07,0,9.74-7.07,19.27-17.34,19.27a12.5,12.5,0,0,1-11.6-7.14Zm15.54-14.07c8.14,0,12.67-7.87,12.67-15.47,0-6.54-4.4-10.27-9.2-10.27-5.13,0-9.8,3.33-12.27,8l-1.27,6C335,184.64,338.86,190.44,346.13,190.44Z" transform="translate(-5.78 -5.44)"/><path class="cls-1" d="M375.55,150.09c.33-1.53.93-2.07,2-2.07h.53c1.13,0,2.13.47,1.8,2.07L376.28,167a12.37,12.37,0,0,1,10.54-6.07c7,0,11.14,4.6,11.14,10.74,0,2.33-.93,6.07-1.93,9.74a36.29,36.29,0,0,0-1.6,7.2c0,1.8.93,2.33,2.8,2.47a2.61,2.61,0,0,1-2.87,2.93c-2.67,0-4.27-1.8-4.27-4.73a40.29,40.29,0,0,1,1.73-8.47,38.45,38.45,0,0,0,1.67-8.34c0-4.6-2.6-7.47-7.27-7.47-4.87,0-8.14,2.53-11.14,7.67l-4,19c-.33,1.53-.93,2.07-2,2.07h-.53c-1.13,0-2.13-.47-1.8-2.07Z" transform="translate(-5.78 -5.44)"/><path class="cls-1" d="M421.09,160.9a14.3,14.3,0,0,1,14.61,14.74c0,9.87-7.54,18.61-17.87,18.61a14.3,14.3,0,0,1-14.61-14.74C403.22,169.63,410.76,160.9,421.09,160.9Zm-3,29.54c7.4,0,13.2-6.8,13.2-14.67,0-6.4-4.6-11.07-10.47-11.07-7.4,0-13.2,6.8-13.2,14.67C407.62,185.77,412.23,190.44,418.09,190.44Z" transform="translate(-5.78 -5.44)"/><path class="cls-1" d="M445.77,165.57H443c-1.27,0-1.93-.33-1.93-1.07a4.1,4.1,0,0,1,.8-2.33,2.09,2.09,0,0,1,1.6-.47h3.07l.67-3.13c.67-3.27,1.73-4.47,3.53-4.47a2.82,2.82,0,0,1,1.67.53l-1.53,7.07h8c1.27,0,1.93.33,1.93,1.07a4.11,4.11,0,0,1-.8,2.33,2.1,2.1,0,0,1-1.6.47h-8.34l-3.67,17.14c-1.2,5.67.47,7.8,4.07,7.8a6.2,6.2,0,0,0,4.4-1.93c.13-.13,1,.8,1,2a2.8,2.8,0,0,1-.93,2.07,7.35,7.35,0,0,1-5.14,1.6c-5.94,0-9.27-3.87-7.67-11.54Z" transform="translate(-5.78 -5.44)"/><path class="cls-1" d="M479.52,160.9a14.3,14.3,0,0,1,14.61,14.74c0,9.87-7.54,18.61-17.87,18.61a14.3,14.3,0,0,1-14.61-14.74C461.64,169.63,469.18,160.9,479.52,160.9Zm-3,29.54c7.4,0,13.2-6.8,13.2-14.67,0-6.4-4.6-11.07-10.47-11.07-7.4,0-13.2,6.8-13.2,14.67C466,185.77,470.65,190.44,476.52,190.44Z" transform="translate(-5.78 -5.44)"/></g><g id="Layer_3" data-name="Layer 3"><g class="cls-2"><polygon class="cls-3" points="195.8 195.16 195.8 144.59 237.62 144.59 237.62 140.86 254.14 140.86 254.14 144.96 295.85 144.96 295.85 195.16 249.56 195.16 249.56 198.35 242.47 198.35 242.47 195.16 195.8 195.16"/><path class="cls-3" d="M294.7,16.1H429.07c15.94,0,30.71-.91,43.16,11.22,14.54,14.16,12.12,33.05,12.12,51.48v52.83h11.43V63.53c0-18.75-3.82-38.29-20.49-49.67C460.26,3.6,442.1,5.6,424.9,5.6H294.7Z" transform="translate(-5.78 -5.44)"/><path class="cls-3" d="M294.7,334H429.07c15.94,0,30.71.91,43.16-11.22,14.54-14.16,12.12-33.05,12.12-51.48V218.46h11.43v68.1c0,18.75-3.82,38.29-20.49,49.67-15,10.26-33.19,8.26-50.39,8.26H294.7Z" transform="translate(-5.78 -5.44)"/><path class="cls-3" d="M208.52,16.1H74.15c-15.94,0-30.71-.91-43.16,11.22C16.45,41.47,18.87,60.37,18.87,78.79v52.83H7.44V63.53c0-18.75,3.82-38.29,20.49-49.67C43,3.6,61.11,5.6,78.32,5.6h130.2Z" transform="translate(-5.78 -5.44)"/><path class="cls-3" d="M208.52,334H74.15c-15.94,0-30.71.91-43.16-11.22-14.54-14.16-12.12-33.05-12.12-51.48V218.46H7.44v68.1c0,18.75,3.82,38.29,20.49,49.67,15,10.26,33.19,8.26,50.39,8.26h130.2Z" transform="translate(-5.78 -5.44)"/></g></g><g id="Layer_5" data-name="Layer 5"><g class="cls-4"><path d="M291.56,170.3c0,5.74,5,7.6,9.6,9.2l.47.16v-4.56c-3.56-1.36-5.88-2.67-5.88-5.34,0-2.39,2-4.66,5.88-5.11V161C295.66,161.62,291.56,165.32,291.56,170.3Z" transform="translate(-5.78 -5.44)"/><path d="M301.63,190.56l-.61,0a12.66,12.66,0,0,1-11.27-6,2.69,2.69,0,0,0-2.4,2.53,4.64,4.64,0,0,0,1.6,3c2.33,2.33,6.6,4.14,11.8,4.14l.87,0Z" transform="translate(-5.78 -5.44)"/></g><path class="cls-4" d="M275.28,160.9c-11.34,0-20,8.94-20,20.41,0,7.47,4.8,12.94,13.81,12.94,5.2,0,8.87-1.33,11.67-4.14,1.13-1.13,1.47-1.8,1.47-2.8a2.35,2.35,0,0,0-2.27-2.07,12.28,12.28,0,0,1-10.74,5.27c-6.27,0-9.54-3.87-9.54-9.47,0-.67,0-1.33.07-2,3.27.27,5.94.4,8.4.4,14.27,0,18.47-3.8,18.47-10.14C286.62,164.3,282.42,160.9,275.28,160.9Zm-7.54,14.87a55.81,55.81,0,0,1-7.07-.4c2.2-6.07,7.74-10.67,14.41-10.67,4.8,0,7.14,2.33,7.14,4.67C282.22,172.7,279.22,175.77,267.75,175.77Z" transform="translate(-5.78 -5.44)"/><path class="cls-4" d="M250.27,171.64c0-6.14-4.14-10.74-11.14-10.74A12.45,12.45,0,0,0,228.6,167l.2-.93c.73-3.8-.73-4.6-2.4-4.6a1.49,1.49,0,0,0-.93.2l-6.4,30c-.33,1.6.67,2.07,1.8,2.07h.53c1.07,0,1.67-.53,2-2.07l4-19c3-5.14,6.27-7.67,11.14-7.67,4.67,0,7.27,2.87,7.27,7.47a38.45,38.45,0,0,1-1.67,8.34,40.29,40.29,0,0,0-1.73,8.47c0,2.93,1.6,4.73,4.27,4.73a2.61,2.61,0,0,0,2.87-2.93c-1.87-.13-2.8-.67-2.8-2.47a36.29,36.29,0,0,1,1.6-7.2C249.34,177.7,250.27,174,250.27,171.64Z" transform="translate(-5.78 -5.44)"/><g class="cls-4"><path d="M213.39,151.5c0,1.4,1,2.2,2.93,2.2a3.1,3.1,0,0,0,3.07-3.4,2.53,2.53,0,0,0,0-.27h-5.72A4.14,4.14,0,0,0,213.39,151.5Z" transform="translate(-5.78 -5.44)"/><path d="M210.93,194c3.4,0,3.2-3,3.13-3-3.27,0-3.87-1.13-3.2-4.27l4.93-23.21c.33-1.6-.67-2.07-1.8-2.07h-.53c-1.07,0-1.67.53-2,2.07l-4.93,23.27C205.52,191.44,207,194,210.93,194Z" transform="translate(-5.78 -5.44)"/></g><path class="cls-4" d="M201.58,164.82l3.14-14.73s0,0,0-.07h-3.15Z" transform="translate(-5.78 -5.44)"/></g></svg>